#tb 0: 1/25
#media_type 0: video
#codec_id 0: rawvideo
#dimensions 0: 176x144
#sar 0: 0/1
0,          0,          0,        1,    38016, 0xc805351d
0,          1,          1,        1,    38016, 0x3809fec3
0,          2,          2,        1,    38016, 0xf698ce3c
0,          3,          3,        1,    38016, 0x7e3da603
0,          4,          4,        1,    38016, 0x68b07d81
0,          5,          5,        1,    38016, 0xd91f717a
0,          6,          6,        1,    38016, 0x48885dd6
0,          7,          7,        1,    38016, 0x27e64e8e
0,          8,          8,        1,    38016, 0x955835ce
0,          9,          9,        1,    38016, 0xf19940a0
0,         10,         10,        1,    38016, 0x9a1c51e4
0,         11,         11,        1,    38016, 0xf59373af
0,         12,         12,        1,    38016, 0x5d6c7d06
0,         13,         13,        1,    38016, 0x32fca533
0,         14,         14,        1,    38016, 0x37e69987
0,         15,         15,        1,    38016, 0x96929e05
0,         16,         16,        1,    38016, 0xee37a1f9
